<?xml version="1.0" encoding="iso-8859-1"?>
<!-- Generator: Adobe Illustrator 16.0.0, SVG Export Plug-In . SVG Version: 6.00 Build 0)  -->
<!DOCTYPE svg PUBLIC "-//W3C//DTD SVG 1.1//EN" "http://www.w3.org/Graphics/SVG/1.1/DTD/svg11.dtd">
<svg version="1.1" id="Capa_1" xmlns="http://www.w3.org/2000/svg" xmlns:xlink="http://www.w3.org/1999/xlink" x="0px" y="0px"
	 width="561.266px" height="561.265px" viewBox="0 0 561.266 561.265" style="enable-background:new 0 0 561.266 561.265;"
	 xml:space="preserve">
<g>
	<g>
		<path d="M556.03,434.943l-51.915-64.892l10.327-86.761c0.584-4.867-0.354-9.562-2.419-13.625
			c-0.469-1.301-1.177-2.524-2.257-3.558c-1.357-1.808-3.003-3.366-4.829-4.724L392.415,151.529
			c-3.834-3.624-9.763-3.347-13.253,0.631l-12.441,14.239c-1.233,0.812-2.429,1.73-3.528,2.802l-60.406,58.819l-18.044-3.012
			c0.707-3.242,0.793-6.656,0.048-10.107c-2.783-12.9-15.511-21.095-28.421-18.312l-40.277,8.702l-4.705-5.728l5.173-6.177
			c3.328-4.103,2.964-10.414-0.822-14.105l-49.266-48.08c-3.787-3.691-9.505-3.328-12.794,0.813L55.442,255.818
			c-7.038,5.059-11.13,13.703-9.763,22.863l14.86,99.641L5.21,447.737c-8.224,10.328-6.531,25.36,3.796,33.593
			c4.409,3.51,9.668,5.212,14.889,5.212c7.028,0,13.99-3.079,18.714-9.008l61.812-77.542c4.141-5.184,5.929-11.857,4.953-18.428
			l-7.66-51.359c0.498-0.393,1.033-0.67,1.473-1.205l5.853-7l36.261,50.471l13.713,93.637c1.74,11.886,11.953,20.444,23.629,20.444
			c1.147,0,2.314-0.086,3.49-0.259c13.062-1.912,22.099-14.057,20.187-27.119l-14.545-99.393c-0.554-3.786-2.008-7.382-4.236-10.489
			l-46.828-65.169l39.502-47.238l8.233,10.022c4.6,5.594,11.398,8.73,18.475,8.73c1.683,0,3.375-0.182,5.049-0.545l21.22-4.581
			c2.305,8.846,9.571,15.97,19.173,17.566l54.525,9.085c1.31,0.22,2.62,0.324,3.93,0.324c6.178,0,12.174-2.391,16.678-6.77
			l32.962-32.092l61.582,69.27l-45.556,56.074c-3.462,4.256-5.355,9.582-5.355,15.07v89.678c0,13.206,10.701,23.906,23.906,23.906
			c13.206,0,23.906-10.7,23.906-23.906v-81.186l40.957-50.414l-4.438,37.236c-0.755,6.359,1.062,12.757,5.068,17.758l58.169,72.714
			c4.724,5.899,11.676,8.969,18.685,8.969c5.23,0,10.509-1.711,14.918-5.24C562.6,460.302,564.272,445.25,556.03,434.943z"/>
		<path d="M190.417,96.344c-2.936,5.958-4.724,12.575-4.724,19.67c0,24.777,20.081,44.848,44.838,44.848
			c13.235,0,25.007-5.843,33.23-14.965C255.758,142.598,211.426,123.406,190.417,96.344z"/>
		<path d="M277.914,179.423c25.359-13.512,45.823-54.411,52.977-70.265c-6.102-3.108-12.9-5.021-20.206-5.021
			c-14.707,0-27.636,7.172-35.812,18.111c0.297-2.037,0.526-4.102,0.526-6.225c0-24.767-20.091-44.838-44.849-44.838
			c-14.86,0-27.932,7.315-36.089,18.446c0.229,0.325,0.516,0.631,0.755,0.957c-1.817-1.664-3.949-2.534-6.225-2.802
			c-1.435-2.936-0.239-9.868,1.396-14.324c0.679-1.855-0.268-3.921-2.132-4.6c-1.817-0.679-3.902,0.268-4.6,2.123
			c-0.765,2.075-3.625,10.653-1.999,17.395c-3.892,0.975-7.086,2.572-7.793,2.955c-1.75,0.937-2.391,3.108-1.454,4.848
			c0.641,1.205,1.884,1.894,3.165,1.894c0.574,0,1.147-0.144,1.683-0.421c3.223-1.731,11.112-4.494,13.531-1.549
			c1.262,1.539,3.51,1.75,5.049,0.497c1.128-0.928,1.53-2.391,1.167-3.71c20.33,25.293,63.877,44.055,69.902,46.569
			c-0.22,1.004-0.268,2.056-0.421,3.079l-0.076,0.182c0.028-0.028,0.038-0.067,0.067-0.105c-0.307,2.104-0.641,4.208-0.641,6.397
			C265.827,160.776,270.475,171.419,277.914,179.423z"/>
		<path d="M354.452,107.924c1.855,0.679,3.911-0.268,4.609-2.132c0.669-1.817-0.268-3.901-2.133-4.59
			c-2.074-0.765-10.652-3.624-17.394-1.999c-0.976-3.892-2.572-7.086-2.945-7.793c-0.938-1.75-3.108-2.391-4.858-1.454
			c-1.204,0.641-1.884,1.884-1.884,3.165c0,0.574,0.144,1.147,0.421,1.683c1.74,3.223,4.504,11.112,1.55,13.531
			c-1.53,1.262-1.75,3.509-0.498,5.049c1.263,1.53,3.51,1.75,5.04,0.497c0.268-0.22,0.392-0.507,0.631-0.746
			c-7.563,16.715-27.406,55.912-53.368,71.413c7.545,5.737,16.849,9.285,27.062,9.285c24.768,0,44.839-20.081,44.839-44.838
			c0-14.822-7.277-27.875-18.37-36.032c1.789-1.855,2.697-4.064,2.975-6.426C343.063,105.094,349.986,106.289,354.452,107.924z"/>
	</g>
</g>
<g>
</g>
<g>
</g>
<g>
</g>
<g>
</g>
<g>
</g>
<g>
</g>
<g>
</g>
<g>
</g>
<g>
</g>
<g>
</g>
<g>
</g>
<g>
</g>
<g>
</g>
<g>
</g>
<g>
</g>
</svg>
